<?xml version="1.0" encoding="utf-8"?>
<!-- Generator: Adobe Illustrator 16.0.0, SVG Export Plug-In . SVG Version: 6.00 Build 0)  -->
<!DOCTYPE svg PUBLIC "-//W3C//DTD SVG 1.1//EN" "http://www.w3.org/Graphics/SVG/1.1/DTD/svg11.dtd">
<svg version="1.1" id="Capa_1" xmlns="http://www.w3.org/2000/svg" xmlns:xlink="http://www.w3.org/1999/xlink" x="0px" y="0px"
	 width="21.126px" height="41.423px" viewBox="325.474 476.885 21.126 41.423"
	 enable-background="new 325.474 476.885 21.126 41.423" xml:space="preserve">
<g>
	<path fill="#A99272" d="M346.6,487.845c0-5.813-4.75-10.563-10.563-10.563s-10.563,4.75-10.563,10.563
		c0,5.586,4.37,10.146,9.842,10.525v19.722c0,0.38,0.304,0.722,0.722,0.722s0.722-0.304,0.722-0.722V498.37
		C342.268,497.99,346.6,493.431,346.6,487.845z M336.074,497.003c-5.054,0-9.157-4.104-9.157-9.158s4.104-9.157,9.157-9.157
		s9.157,4.104,9.157,9.157S341.09,497.003,336.074,497.003z"/>
	<path fill="#A99272" d="M332.54,482.222c-1.558,0-2.812,1.254-2.812,2.812s1.254,2.812,2.812,2.812
		c1.559,0,2.812-1.254,2.812-2.812S334.099,482.222,332.54,482.222z M332.54,486.439c-0.76,0-1.405-0.646-1.405-1.406
		s0.646-1.406,1.405-1.406s1.406,0.646,1.406,1.406S333.3,486.439,332.54,486.439z"/>
</g>
</svg>
